<svg xmlns="http://www.w3.org/2000/svg" viewBox="0 0 200 220" fill="none" role="img" aria-label="BoxBuild">
  <title>BoxBuild</title>
  <path d="M100 10 L190 60 L100 110 L10 60 Z" fill="#262626"/>
  <path d="M10 60 L100 110 L100 210 L10 160 Z" fill="#262626"/>
  <path d="M190 60 L100 110 L100 210 L190 160 Z" fill="#262626"/>
  <g transform="matrix(0.9 0.5 0 1 10 60)" fill="#ffffff">
    <rect x="26" y="10" width="12" height="80"/>
    <rect x="38" y="10" width="36" height="12"/>
    <rect x="62" y="22" width="12" height="22"/>
    <rect x="38" y="44" width="36" height="12"/>
    <rect x="62" y="56" width="12" height="22"/>
    <rect x="38" y="78" width="36" height="12"/>
  </g>
  <g transform="matrix(0.9 -0.5 0 1 100 110)" fill="#ffffff">
    <rect x="26" y="10" width="12" height="80"/>
    <rect x="38" y="10" width="36" height="12"/>
    <rect x="62" y="22" width="12" height="22"/>
    <rect x="38" y="44" width="36" height="12"/>
    <rect x="62" y="56" width="12" height="22"/>
    <rect x="38" y="78" width="36" height="12"/>
  </g>
</svg>
